:FULLY-SPECIFIED
:FORCE-ALL-JOINTS-BE-3DOF
:DEGREES
2344
root 0.699475 13.9851 -17.8515 -163.648 -51.3019 169.979
lfemur -1.21946 -5.87421 0.850517
ltibia 30.9412 -0 0
lfoot -12.2886 27.4256 -0.0300318
ltoes -46.9128 0 0
rfemur -69.048 -13.5897 11.9598
rtibia 79.1033 -0 0
rfoot -10.157 -15.5526 0.0638418
rtoes 6.1241 -0 0
lowerback 19.4758 3.51784 -4.1146
upperback 0.305513 3.50534 -0.767416
thorax -10.8215 1.78073 0.503134
lowerneck -4.92987 -3.77331 -5.8815
upperneck 2.39184 -4.72701 1.38034
head 1.88236 -2.38389 1.33728
lclavicle -1.2008e-13 3.18055e-15 6.27254e-46
lhumerus -42.7435 -18.7875 89.6692
lradius 100.604 -0 0
lwrist 53.376 0 0
lhand -23.1763 43.5301 0.0121899
lfingers 7.12502 -0 0
lthumb 3.27306 73.4534 0.0138074
rclavicle -1.2008e-13 3.18055e-15 6.27254e-46
rhumerus 50.6177 10.0366 -47.2973
rradius 44.7976 -0 0
rwrist 8.39489 0 0
rhand -7.64688 -38.0107 -0.0106036
rfingers 7.12502 -0 0
rthumb 18.2477 -67.1641 -0.00667513
2345
root 0.694546 14.0051 -17.9767 -162.801 -54.1895 169.216
lfemur -2.20837 -5.47339 0.535693
ltibia 32.1718 -0 0
lfoot -12.1027 27.2969 -0.0393105
ltoes -46.2888 0 0
rfemur -68.599 -13.1856 12.0841
rtibia 79.0281 -0 0
rfoot -10.3587 -15.8042 0.0835712
rtoes 5.87922 -0 0
lowerback 19.4475 3.4764 -3.9796
upperback 0.271274 3.48955 -0.731746
thorax -10.8374 1.76858 0.470351
lowerneck -4.95141 -3.49378 -5.65894
upperneck 2.54204 -4.35826 1.12273
head 1.93634 -2.20177 1.24208
lclavicle -1.18144e-13 3.18055e-15 6.27254e-46
lhumerus -41.0532 -19.8588 89.6075
lradius 100.845 -0 0
lwrist 51.5753 0 0
lhand -23.4928 43.4995 0.015957
lfingers 7.12502 -0 0
lthumb 2.96745 73.4174 0.0180742
rclavicle -1.18144e-13 3.18055e-15 6.27254e-46
rhumerus 49.9482 11.1522 -47.2365
rradius 45.8448 -0 0
rwrist 7.85499 0 0
rhand -7.48547 -38.0631 -0.0138794
rfingers 7.12502 -0 0
rthumb 18.4027 -67.1984 -0.00873729
2346
root 0.68902 14.0275 -18.117 -161.689 -57.4155 168.196
lfemur -3.31824 -5.0308 0.174999
ltibia 33.5506 -0 0
lfoot -11.8943 27.1526 -0.0492105
ltoes -45.5898 0 0
rfemur -68.0957 -12.7341 12.227
rtibia 78.9438 -0 0
rfoot -10.5849 -16.0864 0.104634
rtoes 5.60484 -0 0
lowerback 19.4155 3.43004 -3.82832
upperback 0.2329 3.47189 -0.691769
thorax -10.8552 1.75495 0.433624
lowerneck -4.97424 -3.18058 -5.40985
upperneck 2.70828 -3.9443 0.835394
head 1.99646 -1.9976 1.13562
lclavicle -1.15975e-13 3.18055e-15 -1.25451e-45
lhumerus -39.1437 -21.0566 89.4977
lradius 101.116 -0 0
lwrist 49.5577 0 0
lhand -23.8475 43.4652 0.0199767
lfingers 7.12502 -0 0
lthumb 2.62503 73.3771 0.0226271
rclavicle -1.15975e-13 3.18055e-15 -1.25451e-45
rhumerus 49.1962 12.403 -47.1841
rradius 47.0182 -0 0
rwrist 7.24991 0 0
rhand -7.30461 -38.1218 -0.0173743
rfingers 7.12502 -0 0
rthumb 18.5764 -67.237 -0.0109374
2347
root 0.68294 14.052 -18.2712 -160.203 -60.9476 166.809
lfemur -4.54097 -4.55229 -0.231173
ltibia 35.0667 -0 0
lfoot -11.6651 26.994 -0.0594901
ltoes -44.8212 0 0
rfemur -67.542 -12.2391 12.3885
rtibia 78.8511 -0 0
rfoot -10.8337 -16.3966 0.126499
rtoes 5.30315 -0 0
lowerback 19.3803 3.37918 -3.66196
upperback 0.190693 3.4525 -0.647799
thorax -10.8747 1.73996 0.393245
lowerneck -4.99775 -2.8361 -5.1362
upperneck 2.88861 -3.48808 0.520926
head 2.06211 -1.77298 1.01883
lclavicle -1.1359e-13 3.18055e-15 0
lhumerus -37.0229 -22.3687 89.3262
lradius 101.413 -0 0
lwrist 47.3392 0 0
lhand -24.2377 43.4274 0.0241534
lfingers 7.12502 -0 0
lthumb 2.24833 73.3328 0.0273575
rclavicle -1.1359e-13 3.18055e-15 0
rhumerus 48.3663 13.7788 -47.1455
rradius 48.3083 -0 0
rwrist 6.58472 0 0
rhand -7.10574 -38.1864 -0.0210031
rfingers 7.12502 -0 0
rthumb 18.7673 -67.2793 -0.0132216
